<svg xmlns="http://www.w3.org/2000/svg" viewBox="0 0 1400 100" preserveAspectRatio="xMidYMid slice" role="img" aria-hidden="true">
<defs><linearGradient id="g" x1="0" y1="0" x2="1" y2="1"><stop offset="0" stop-color="#E6F0F2"/><stop offset="1" stop-color="#F5F7F6"/></linearGradient></defs>
<rect width="1400" height="100" fill="url(#g)"/>
<rect x="0" y="92" width="1400" height="8" fill="#16323F" opacity=".85"/><rect x="30" y="78.0" width="26" height="14.0" rx="2" fill="#2E7391" opacity=".75"/><rect x="79" y="71.8" width="26" height="20.2" rx="2" fill="#1F5C73" opacity=".75"/><rect x="128" y="65.6" width="26" height="26.4" rx="2" fill="#2E7391" opacity=".75"/><rect x="177" y="70.4" width="26" height="21.6" rx="2" fill="#1F5C73" opacity=".75"/><rect x="226" y="64.2" width="26" height="27.8" rx="2" fill="#2E7391" opacity=".75"/><rect x="275" y="58.0" width="26" height="34.0" rx="2" fill="#1F5C73" opacity=".75"/><rect x="324" y="62.8" width="26" height="29.2" rx="2" fill="#2E7391" opacity=".75"/><rect x="373" y="56.6" width="26" height="35.4" rx="2" fill="#1F5C73" opacity=".75"/><rect x="422" y="50.4" width="26" height="41.6" rx="2" fill="#2E7391" opacity=".75"/><rect x="471" y="55.2" width="26" height="36.8" rx="2" fill="#1F5C73" opacity=".75"/><rect x="520" y="49.0" width="26" height="43.0" rx="2" fill="#2E7391" opacity=".75"/><rect x="569" y="53.8" width="26" height="38.2" rx="2" fill="#1F5C73" opacity=".75"/><rect x="618" y="47.6" width="26" height="44.4" rx="2" fill="#2E7391" opacity=".75"/><rect x="667" y="41.4" width="26" height="50.6" rx="2" fill="#1F5C73" opacity=".75"/><rect x="716" y="46.2" width="26" height="45.8" rx="2" fill="#2E7391" opacity=".75"/><rect x="765" y="40.0" width="26" height="52.0" rx="2" fill="#1F5C73" opacity=".75"/><rect x="814" y="33.8" width="26" height="58.2" rx="2" fill="#2E7391" opacity=".75"/><rect x="863" y="38.6" width="26" height="53.4" rx="2" fill="#1F5C73" opacity=".75"/><rect x="912" y="32.4" width="26" height="59.6" rx="2" fill="#2E7391" opacity=".75"/><rect x="961" y="26.2" width="26" height="65.8" rx="2" fill="#1F5C73" opacity=".75"/><rect x="1010" y="31.0" width="26" height="61.0" rx="2" fill="#2E7391" opacity=".75"/><rect x="1059" y="24.8" width="26" height="67.2" rx="2" fill="#1F5C73" opacity=".75"/><rect x="1108" y="29.6" width="26" height="62.4" rx="2" fill="#2E7391" opacity=".75"/><rect x="1157" y="23.4" width="26" height="68.6" rx="2" fill="#1F5C73" opacity=".75"/><rect x="1206" y="17.2" width="26" height="74.8" rx="2" fill="#2E7391" opacity=".75"/><rect x="1255" y="22.0" width="26" height="70.0" rx="2" fill="#1F5C73" opacity=".75"/><rect x="1304" y="15.8" width="26" height="76.2" rx="2" fill="#2E7391" opacity=".75"/><rect x="1353" y="9.6" width="26" height="82.4" rx="2" fill="#1F5C73" opacity=".75"/><path d="M43 70.0 L92 63.8 L141 57.6 L190 62.4 L239 56.2 L288 50.0 L337 54.8 L386 48.6 L435 42.4 L484 47.2 L533 41.0 L582 45.8 L631 39.6 L680 33.4 L729 38.2 L778 32.0 L827 25.8 L876 30.6 L925 24.4 L974 18.2 L1023 23.0 L1072 16.8 L1121 21.6 L1170 15.4 L1219 9.2 L1268 14.0 L1317 7.8 L1366 1.6" fill="none" stroke="#C97B3D" stroke-width="3.5" stroke-linejoin="round" stroke-linecap="round"/><circle cx="43" cy="70.0" r="4.5" fill="#fff" stroke="#C97B3D" stroke-width="2.5"/><circle cx="239" cy="56.2" r="4.5" fill="#fff" stroke="#C97B3D" stroke-width="2.5"/><circle cx="435" cy="42.4" r="4.5" fill="#fff" stroke="#C97B3D" stroke-width="2.5"/><circle cx="631" cy="39.6" r="4.5" fill="#fff" stroke="#C97B3D" stroke-width="2.5"/><circle cx="827" cy="25.8" r="4.5" fill="#fff" stroke="#C97B3D" stroke-width="2.5"/><circle cx="1023" cy="23.0" r="4.5" fill="#fff" stroke="#C97B3D" stroke-width="2.5"/><circle cx="1219" cy="9.2" r="4.5" fill="#fff" stroke="#C97B3D" stroke-width="2.5"/>
</svg>