<svg xmlns="http://www.w3.org/2000/svg" viewBox="0 0 1400 100" preserveAspectRatio="xMidYMid slice" role="img" aria-hidden="true">
<defs><linearGradient id="g" x1="0" y1="0" x2="1" y2="1"><stop offset="0" stop-color="#FBEFE2"/><stop offset="1" stop-color="#E6F0F2"/></linearGradient></defs>
<rect width="1400" height="100" fill="url(#g)"/>
<path d="M0 90 C300 80 500 94 700 88 C900 82 1100 94 1400 86 V100 H0Z" fill="#1F5C73" opacity=".55"/><g transform="translate(700 92) scale(0.95)"><path d="M-4 0 V-30 M0 -22 L-16 -40 M0 -26 L16 -46" stroke="#16323F" stroke-width="5" stroke-linecap="round" fill="none"/><circle cx="0" cy="-58" r="26" fill="#2E7391" opacity=".9"/><circle cx="-24" cy="-42" r="18" fill="#2E7391" opacity=".8"/><circle cx="24" cy="-48" r="20" fill="#2E7391" opacity=".8"/></g><g transform="translate(470 90) scale(0.7)"><path d="M-4 0 V-30 M0 -22 L-16 -40 M0 -26 L16 -46" stroke="#16323F" stroke-width="5" stroke-linecap="round" fill="none"/><circle cx="0" cy="-58" r="26" fill="#2E7391" opacity=".9"/><circle cx="-24" cy="-42" r="18" fill="#2E7391" opacity=".8"/><circle cx="24" cy="-48" r="20" fill="#2E7391" opacity=".8"/></g><g transform="translate(930 90) scale(0.7)"><path d="M-4 0 V-30 M0 -22 L-16 -40 M0 -26 L16 -46" stroke="#16323F" stroke-width="5" stroke-linecap="round" fill="none"/><circle cx="0" cy="-58" r="26" fill="#2E7391" opacity=".9"/><circle cx="-24" cy="-42" r="18" fill="#2E7391" opacity=".8"/><circle cx="24" cy="-48" r="20" fill="#2E7391" opacity=".8"/></g><g transform="translate(300 90) scale(0.5)"><path d="M-4 0 V-30 M0 -22 L-16 -40 M0 -26 L16 -46" stroke="#16323F" stroke-width="5" stroke-linecap="round" fill="none"/><circle cx="0" cy="-58" r="26" fill="#2E7391" opacity=".9"/><circle cx="-24" cy="-42" r="18" fill="#2E7391" opacity=".8"/><circle cx="24" cy="-48" r="20" fill="#2E7391" opacity=".8"/></g><g transform="translate(1100 90) scale(0.5)"><path d="M-4 0 V-30 M0 -22 L-16 -40 M0 -26 L16 -46" stroke="#16323F" stroke-width="5" stroke-linecap="round" fill="none"/><circle cx="0" cy="-58" r="26" fill="#2E7391" opacity=".9"/><circle cx="-24" cy="-42" r="18" fill="#2E7391" opacity=".8"/><circle cx="24" cy="-48" r="20" fill="#2E7391" opacity=".8"/></g><g transform="translate(130 90) scale(0.35)"><path d="M-4 0 V-30 M0 -22 L-16 -40 M0 -26 L16 -46" stroke="#16323F" stroke-width="5" stroke-linecap="round" fill="none"/><circle cx="0" cy="-58" r="26" fill="#2E7391" opacity=".9"/><circle cx="-24" cy="-42" r="18" fill="#2E7391" opacity=".8"/><circle cx="24" cy="-48" r="20" fill="#2E7391" opacity=".8"/></g><g transform="translate(1270 90) scale(0.35)"><path d="M-4 0 V-30 M0 -22 L-16 -40 M0 -26 L16 -46" stroke="#16323F" stroke-width="5" stroke-linecap="round" fill="none"/><circle cx="0" cy="-58" r="26" fill="#2E7391" opacity=".9"/><circle cx="-24" cy="-42" r="18" fill="#2E7391" opacity=".8"/><circle cx="24" cy="-48" r="20" fill="#2E7391" opacity=".8"/></g><circle cx="590" cy="80" r="9" fill="#C97B3D"/><circle cx="590" cy="80" r="5.5" fill="none" stroke="#fff" stroke-width="1.5" opacity=".7"/><circle cx="810" cy="80" r="9" fill="#C97B3D"/><circle cx="810" cy="80" r="5.5" fill="none" stroke="#fff" stroke-width="1.5" opacity=".7"/><circle cx="380" cy="80" r="9" fill="#C97B3D"/><circle cx="380" cy="80" r="5.5" fill="none" stroke="#fff" stroke-width="1.5" opacity=".7"/><circle cx="1020" cy="80" r="9" fill="#C97B3D"/><circle cx="1020" cy="80" r="5.5" fill="none" stroke="#fff" stroke-width="1.5" opacity=".7"/>
</svg>